<svg width="23" height="24" viewBox="0 0 23 24" fill="none" xmlns="http://www.w3.org/2000/svg">
<path d="M7.08964 13.6373C7.08964 13.6373 11.5817 9.89469 11.8418 9.50926C12.212 8.9717 12.3121 8.16029 10.7313 7.35901C8.01006 5.97961 0.476559 0.948832 0.476559 0.948832L19.1352 7.34887C19.1352 7.34887 19.1352 7.34887 19.1452 7.34887C21.0862 8.09943 21.3063 8.79927 20.9861 9.32669C20.9561 9.37741 20.786 9.60055 20.686 9.67155C20.2358 10.0671 18.585 10.8075 17.8747 11.1727C16.6341 11.8117 15.0934 12.6332 14.0529 13.2418C12.7923 13.9923 11.5717 14.7125 11.2516 14.9457C10.5312 15.4529 10.1811 15.7572 10.041 16.4773C10.031 16.5077 10.031 16.6599 10.051 16.8019C10.061 16.8627 10.111 16.9946 10.1411 17.0453C10.1811 17.1061 10.2311 17.1771 10.2711 17.2177C10.8514 17.8668 12.192 18.4653 12.192 18.4653L22.4768 23.0193C22.4768 23.0193 14.423 21.7515 8.06009 20.1489C7.38978 19.9867 5.65897 19.439 4.8686 19.1144C4.67851 19.0333 4.35837 18.8101 4.29834 18.7493C2.62756 16.9337 7.08964 13.6373 7.08964 13.6373Z" fill="white"/>
<path d="M16.1039 13.2435L16.107 13.2459L16.1469 13.2761C16.1812 13.3023 16.2304 13.3403 16.292 13.389C16.4152 13.4863 16.5882 13.6267 16.79 13.8006C17.1921 14.147 17.7166 14.6333 18.1912 15.1836C18.6595 15.7265 19.111 16.3678 19.3255 17.0246C19.5469 17.7025 19.5275 18.4546 18.9534 19.0787L18.9475 19.0851L18.9413 19.0914C18.869 19.1647 18.7304 19.2625 18.6244 19.3326C18.5072 19.41 18.349 19.5066 18.2109 19.5656L18.2045 19.5683L18.2045 19.5683C17.3899 19.9028 15.6377 20.4573 14.9428 20.6258C14.942 20.626 14.9413 20.6261 14.9405 20.6263L14.8225 20.1388C10.4082 21.2506 5.18023 22.2012 2.39204 22.6792L16.1039 13.2435ZM16.1039 13.2435L16.1013 13.2413L16.0638 13.2101L15.9211 13.0909C15.798 12.988 15.6218 12.8405 15.4095 12.6623C14.9848 12.3059 14.4161 11.8268 13.8395 11.3359C13.2625 10.8446 12.6795 10.3431 12.2254 9.94125C11.998 9.74002 11.8057 9.5662 11.6636 9.43227C11.5924 9.36509 11.5367 9.31076 11.4968 9.26965C11.4632 9.23509 11.4513 9.22049 11.451 9.22065C11.451 9.22066 11.451 9.22068 11.4511 9.22072C11.3201 9.02897 11.2828 8.85997 11.3391 8.695C11.4037 8.50581 11.6363 8.18242 12.378 7.80642L12.3787 7.80608C13.7615 7.10255 16.3454 5.48478 18.5618 4.05845C19.6749 3.34215 20.7028 2.66917 21.4525 2.17532C21.8273 1.92837 22.1327 1.72614 22.3444 1.5856L22.5888 1.42317L22.6526 1.38062L22.669 1.36971L22.6731 1.36693L22.6742 1.36623L22.6745 1.36604C22.6745 1.366 22.6746 1.36597 22.396 0.948832L22.6746 1.36597L22.2333 0.474365L3.65369 6.84727H3.63371L3.5464 6.88103C2.55424 7.26471 1.90584 7.66814 1.5615 8.11551C1.38108 8.34993 1.27559 8.6079 1.26488 8.88105C1.25428 9.15137 1.3383 9.38982 1.45681 9.58554C1.49352 9.64663 1.56327 9.73815 1.62389 9.81138C1.6768 9.87529 1.77067 9.98449 1.87178 10.0624C2.02509 10.1934 2.2438 10.3298 2.46735 10.4573C2.70778 10.5945 2.98758 10.7401 3.26955 10.8817C3.56241 11.0289 3.84424 11.1654 4.09844 11.2886C4.35592 11.4134 4.58506 11.5244 4.76859 11.6188C6.00595 12.2561 7.53607 13.0722 8.56475 13.6738L8.57231 13.6783C9.84467 14.4358 11.0232 15.1375 11.3315 15.3554L11.3322 15.3559C11.6955 15.6116 11.9131 15.7817 12.0617 15.9565C12.1925 16.1104 12.2807 16.2817 12.3365 16.5593C12.3366 16.5662 12.3366 16.5756 12.3363 16.5872C12.3355 16.6244 12.3326 16.6701 12.3273 16.7135C12.3243 16.7233 12.3198 16.7368 12.3141 16.752C12.3085 16.767 12.303 16.7805 12.2985 16.7905C12.2863 16.8087 12.2743 16.8258 12.2632 16.8408C12.2557 16.8509 12.2498 16.8585 12.2455 16.8637C12.244 16.8655 12.243 16.8668 12.2423 16.8675L12.2357 16.8742L12.2275 16.8834C11.996 17.1424 11.5783 17.4209 11.1763 17.6484C10.9829 17.7579 10.8061 17.8484 10.6778 17.9115C10.6138 17.9429 10.5623 17.9674 10.5272 17.9837L10.4877 18.002L10.4782 18.0063L10.4777 18.0065L10.4762 18.0072L10.4759 18.0073L0.202901 22.5504L0.483779 23.5047L16.1039 13.2435Z" fill="white" stroke="#009999"/>
</svg>
