<svg width="16" height="16" viewBox="0 0 16 16" fill="none" xmlns="http://www.w3.org/2000/svg">
<g clip-path="url(#clip0_2944_28643)">
<path d="M8.66666 4.66683H7.33333V7.3335H4.66666V8.66683H7.33333V11.3335H8.66666V8.66683H11.3333V7.3335H8.66666V4.66683ZM8 1.3335C4.31999 1.3335 1.33333 4.32016 1.33333 8.00016C1.33333 11.6802 4.31999 14.6668 8 14.6668C11.68 14.6668 14.6667 11.6802 14.6667 8.00016C14.6667 4.32016 11.68 1.3335 8 1.3335ZM8 13.3335C5.06 13.3335 2.66666 10.9402 2.66666 8.00016C2.66666 5.06016 5.06 2.66683 8 2.66683C10.94 2.66683 13.3333 5.06016 13.3333 8.00016C13.3333 10.9402 10.94 13.3335 8 13.3335Z" fill="#07689C"/>
</g>
<defs>
<clipPath id="clip0_2944_28643">
<rect width="16" height="16" fill="white"/>
</clipPath>
</defs>
</svg>
